<?xml version="1.0" encoding="UTF-8" standalone="no"?>
<!-- Created with Inkscape (http://www.inkscape.org/) -->

<svg
   width="210mm"
   height="100mm"
   viewBox="0 0 210 100"
   version="1.1"
   id="svg1"
   inkscape:version="1.3.2 (091e20e, 2023-11-25)"
   sodipodi:docname="drawing.svg"
   xmlns:inkscape="http://www.inkscape.org/namespaces/inkscape"
   xmlns:sodipodi="http://sodipodi.sourceforge.net/DTD/sodipodi-0.dtd"
   xmlns="http://www.w3.org/2000/svg"
   xmlns:svg="http://www.w3.org/2000/svg"
   xmlns:ns5="http://www.iki.fi/pav/software/textext/">
  <sodipodi:namedview
     id="namedview1"
     pagecolor="#ffffff"
     bordercolor="#000000"
     borderopacity="0.25"
     inkscape:showpageshadow="2"
     inkscape:pageopacity="0.0"
     inkscape:pagecheckerboard="0"
     inkscape:deskcolor="#d1d1d1"
     inkscape:document-units="mm"
     inkscape:zoom="0.69544422"
     inkscape:cx="460.85651"
     inkscape:cy="417.71862"
     inkscape:window-width="1392"
     inkscape:window-height="980"
     inkscape:window-x="273"
     inkscape:window-y="38"
     inkscape:window-maximized="0"
     inkscape:current-layer="layer1" />
  <style
     id="style7" />
  <defs
     id="defs1">
    <marker
       style="overflow:visible"
       id="Triangle"
       refX="0"
       refY="0"
       orient="auto-start-reverse"
       inkscape:stockid="Triangle arrow"
       markerWidth="1"
       markerHeight="1"
       viewBox="0 0 1 1"
       inkscape:isstock="true"
       inkscape:collect="always"
       preserveAspectRatio="xMidYMid">
      <path
         transform="scale(0.5)"
         style="fill:context-stroke;fill-rule:evenodd;stroke:context-stroke;stroke-width:1pt"
         d="M 5.77,0 -2.88,5 V -5 Z"
         id="path135" />
    </marker>
    <inkscape:path-effect
       effect="spiro"
       id="path-effect7"
       is_visible="true"
       lpeversion="1" />
  </defs>
  <g
     inkscape:label="Layer 1"
     inkscape:groupmode="layer"
     id="layer1">
    <ellipse
       style="fill:none;stroke:#000000;stroke-width:0.3;stroke-linejoin:round"
       id="path1"
       cx="24.77528"
       cy="29.730337"
       rx="7.3146067"
       ry="7.0786519" />
    <ellipse
       style="fill:none;stroke:#000000;stroke-width:0.3;stroke-linejoin:round"
       id="path2"
       cx="53.089886"
       cy="26.426966"
       rx="9.6741571"
       ry="12.741573"
       class="ellipse" />
    <path
       style="fill:none;stroke:#000000;stroke-width:0.3;stroke-linejoin:round"
       d="M 76.449438,25.011236 116.08989,14.629213"
       id="path3" />
    <circle
       id="path4"
       style="fill:#000000;stroke:#000000;stroke-width:0.264583"
       cx="99.573029"
       cy="39.64045"
       r="0.07127203" />
    <circle
       id="path5"
       style="fill:#000000;stroke:#000000;stroke-width:0.264583"
       cx="121.28089"
       cy="53.325844"
       r="0.07127203" />
    <path
       style="fill:none;stroke:#000000;stroke-width:0.3;stroke-linejoin:round"
       d="m 104.29213,27.370786 7.55056,23.123596"
       id="path6" />
    <path
       style="fill:none;stroke:#000000;stroke-width:0.3;stroke-linejoin:round"
       d="m 135.4382,17.932584 c -2.02002,0.888914 -3.78266,2.353983 -5.02592,4.177426 -1.24325,1.823444 -1.96317,3.999464 -2.05273,6.204597 -0.084,2.067548 0.39069,4.168947 1.44467,5.949658 1.05398,1.780711 2.69671,3.224891 4.63525,3.948667 1.93855,0.723776 4.16381,0.700687 6.04838,-0.153837 1.88457,-0.854524 3.38858,-2.552738 3.91664,-4.553477 0.28951,-1.096901 0.29204,-2.251363 0.1807,-3.380351 -0.11133,-1.128987 -0.33397,-2.243789 -0.48966,-3.367519 -0.15568,-1.123731 -0.24409,-2.267776 -0.0859,-3.391151 0.15824,-1.123374 0.5783,-2.23251 1.33864,-3.074462 0.80992,-0.896853 1.97897,-1.443642 3.18206,-1.557164 1.20309,-0.113523 2.43172,0.194175 3.47546,0.80321 1.04374,0.609034 1.90482,1.510434 2.52635,2.546784 0.62153,1.03635 1.00828,2.204752 1.19815,3.398181 0.27768,1.745421 0.14056,3.52645 0.18249,5.293324 0.0419,1.766873 0.28711,3.595898 1.23324,5.088697 0.63515,1.002138 1.57023,1.808085 2.64653,2.307365 1.0763,0.49928 2.28952,0.692745 3.47001,0.57376 1.18048,-0.118984 2.32581,-0.54791 3.30605,-1.216356 0.98024,-0.668446 1.79489,-1.573709 2.37517,-2.608588 1.14107,-2.03501 1.34235,-4.450387 1.43166,-6.781765 0.0893,-2.331379 0.10189,-4.72165 0.92789,-6.903628 0.70828,-1.871023 2.01722,-3.516396 3.70489,-4.590728 1.68766,-1.074332 3.74768,-1.564367 5.73356,-1.32209 1.98587,0.242277 3.88026,1.223632 5.19167,2.734454 1.31142,1.510822 2.01853,3.541662 1.88673,5.537914 -0.1456,2.205183 -1.25004,4.21719 -2.33602,6.141943 -1.08598,1.924754 -2.20453,3.924959 -2.38308,6.127719 -0.14479,1.786267 0.36461,3.611001 1.37568,5.09068 1.01107,1.47968 2.5114,2.610398 4.19703,3.218969 1.68563,0.608571 3.54762,0.698989 5.29537,0.302641 1.74775,-0.396348 3.37798,-1.272941 4.70495,-2.477457 2.49553,-2.265236 3.86083,-5.719406 3.58846,-9.078688 -0.27238,-3.359281 -2.17632,-6.548378 -5.00419,-8.381987"
       id="path7"
       inkscape:path-effect="#path-effect7"
       inkscape:original-d="m 135.4382,17.932584 c -2.67416,2.831461 -4.40449,6.606741 -7.07865,10.382023 -2.67416,3.775279 10.53932,3.303371 16.04494,5.191011 5.50562,1.887641 0.62922,-8.651686 0.94382,-13.213483 0.31461,-4.561798 6.92135,3.617977 10.38202,5.191011 3.46068,1.573034 0.78652,6.764045 1.41573,10.382021 0.62922,3.617979 8.02248,-0.786516 11.79776,-0.943819 3.77528,-0.157302 1.73033,-8.808989 2.35955,-13.685393 0.62921,-4.876405 10.53932,1.730337 16.51685,2.35955 5.97753,0.629214 -2.67416,7.86517 -4.7191,12.269662 -2.04494,4.404495 10.22472,3.775282 15.57303,6.134833 5.34832,2.359549 -1.10112,-11.325844 -1.41573,-17.460675" />
    <path
       style="fill:none;stroke:#000000;stroke-width:0.232653;stroke-linejoin:round;stroke-dasharray:none;marker-end:url(#Triangle)"
       d="m 51.402532,44.498042 -0.587726,16.759803 69.939354,1.547059 22.03971,20.369604"
       id="path8" />
    <g
       transform="matrix(0.352778,0,0,0.352778,147.55326,84.93196)"
       ns5:version="1.10.2"
       ns5:texconverter="pdflatex"
       ns5:pdfconverter="inkscape"
       ns5:text="$\\iint _a^b \\Psi$"
       ns5:preamble="/Users/alessandromastrofini/Library/Application Support/org.inkscape.Inkscape/config/inkscape/extensions/textext/default_packages.tex"
       ns5:scale="1.0"
       ns5:alignment="middle center"
       ns5:stroke-to-path="0"
       ns5:inkscapeversion="1.3.2"
       id="g9752"
       ns5:jacobian_sqrt="0.352778"
       class="formula">
      <defs
         id="id-20ffd9b7-7f9e-4a2b-b415-1c5490841f14">
        <g
           id="id-4bbe89fb-cf73-4751-bead-88c2032a3f58">
          <g
             id="id-ccc6be08-eb1b-49ba-9f2a-2a738b4e2340">
            <path
               d="m 2.71875,8.765625 c -0.140625,1.640625 -0.5,2.09375 -1.0625,2.09375 -0.125,0 -0.4375,-0.03125 -0.640625,-0.21875 0.296875,-0.03125 0.375,-0.265625 0.375,-0.40625 0,-0.28125 -0.21875,-0.421875 -0.40625,-0.421875 -0.203125,0 -0.421875,0.140625 -0.421875,0.4375 0,0.46875 0.5,0.828125 1.09375,0.828125 0.953125,0 1.421875,-0.875 1.640625,-1.765625 C 3.421875,8.796875 3.78125,5.890625 3.875,4.78125 L 4.0625,2.296875 C 4.203125,0.46875 4.53125,0.21875 4.984375,0.21875 c 0.09375,0 0.40625,0.015625 0.625,0.203125 C 5.328125,0.46875 5.25,0.703125 5.25,0.84375 5.25,1.125 5.46875,1.25 5.65625,1.25 5.859375,1.25 6.078125,1.125 6.078125,0.828125 6.078125,0.34375 5.578125,0 4.96875,0 c -0.9375,0 -1.328125,0.96875 -1.5,1.71875 -0.125,0.546875 -0.484375,3.359375 -0.5625,4.578125 z m 0,0"
               id="id-a17be58b-e97c-46ae-ae8d-74e845872968" />
          </g>
          <g
             id="id-be5e893f-2c2b-4b20-82cc-e7dbbd08e482">
            <path
               d="m 1.84375,-4.625 c 0,-0.015625 0.03125,-0.109375 0.03125,-0.109375 0,-0.046875 -0.03125,-0.109375 -0.125,-0.109375 -0.140625,0 -0.71875,0.0625 -0.890625,0.078125 -0.046875,0 -0.15625,0.015625 -0.15625,0.15625 0,0.09375 0.109375,0.09375 0.1875,0.09375 0.328125,0 0.328125,0.0625 0.328125,0.109375 0,0.046875 -0.0625,0.328125 -0.109375,0.484375 l -0.15625,0.640625 c -0.0625,0.25 -0.4375,1.765625 -0.453125,1.859375 -0.046875,0.171875 -0.046875,0.265625 -0.046875,0.34375 0,0.703125 0.453125,1.140625 1.03125,1.140625 0.875,0 1.796875,-0.9375 1.796875,-1.96875 0,-0.8125 -0.5625,-1.171875 -1.046875,-1.171875 -0.359375,0 -0.671875,0.203125 -0.875,0.390625 z m -0.359375,4.5 c -0.328125,0 -0.53125,-0.296875 -0.53125,-0.71875 0,-0.25 0.0625,-0.484375 0.265625,-1.28125 C 1.25,-2.25 1.25,-2.265625 1.390625,-2.421875 1.65625,-2.71875 1.96875,-2.875 2.21875,-2.875 c 0.265625,0 0.5,0.203125 0.5,0.671875 0,0.28125 -0.140625,1 -0.359375,1.40625 C 2.1875,-0.453125 1.84375,-0.125 1.484375,-0.125 Z m 0,0"
               id="id-12814a00-0e26-4d48-919c-4d9527ec334c" />
          </g>
          <g
             id="id-dc22be6f-2b91-4f9d-a73e-0eae4e5a206c">
            <path
               d="m 2.9375,-2.65625 c -0.140625,-0.234375 -0.375,-0.421875 -0.71875,-0.421875 -0.890625,0 -1.796875,0.984375 -1.796875,1.984375 0,0.6875 0.453125,1.15625 1.0625,1.15625 0.375,0 0.703125,-0.203125 0.984375,-0.484375 C 2.59375,0 3,0.0625 3.1875,0.0625 c 0.25,0 0.421875,-0.140625 0.546875,-0.359375 0.15625,-0.28125 0.25,-0.671875 0.25,-0.703125 0,-0.09375 -0.09375,-0.09375 -0.109375,-0.09375 -0.109375,0 -0.109375,0.03125 -0.15625,0.21875 C 3.625,-0.53125 3.5,-0.125 3.203125,-0.125 3.03125,-0.125 2.96875,-0.28125 2.96875,-0.46875 c 0,-0.109375 0.0625,-0.375 0.109375,-0.546875 0.046875,-0.1875 0.125,-0.46875 0.15625,-0.625 L 3.375,-2.171875 C 3.421875,-2.359375 3.5,-2.6875 3.5,-2.71875 3.5,-2.875 3.375,-2.9375 3.265625,-2.9375 c -0.125,0 -0.28125,0.078125 -0.328125,0.28125 z M 2.5,-0.875 C 2.453125,-0.671875 2.296875,-0.53125 2.140625,-0.40625 2.078125,-0.34375 1.796875,-0.125 1.5,-0.125 c -0.265625,0 -0.515625,-0.1875 -0.515625,-0.671875 0,-0.375 0.203125,-1.140625 0.375,-1.421875 0.3125,-0.5625 0.671875,-0.65625 0.859375,-0.65625 0.484375,0 0.625,0.53125 0.625,0.609375 0,0.015625 -0.015625,0.078125 -0.015625,0.09375 z m 0,0"
               id="id-31fa0f3d-5fa2-425d-bfce-afc8604017c1" />
          </g>
          <g
             id="id-89e03231-7ee3-4b6d-ab4c-77889b3ac624">
            <path
               d="M 4.25,-6.015625 C 4.25,-6.359375 4.25,-6.5 5.203125,-6.5 H 5.53125 v -0.3125 c -0.359375,0.03125 -1.28125,0.03125 -1.6875,0.03125 -0.40625,0 -1.328125,0 -1.6875,-0.03125 V -6.5 h 0.328125 c 0.9375,0 0.9375,0.125 0.9375,0.484375 V -1.59375 C 2.125,-1.9375 2.078125,-3.484375 2.078125,-4.125 2.0625,-5.328125 1.625,-5.515625 1.1875,-5.515625 h -0.375 c -0.140625,0 -0.25,0 -0.25,0.109375 0,0.046875 0.03125,0.09375 0.09375,0.109375 0.328125,0.03125 0.578125,0.171875 0.59375,1.34375 0,0.234375 0.03125,1.015625 0.5,1.6875 0.390625,0.546875 1,0.828125 1.671875,0.921875 v 0.5625 c 0,0.328125 0,0.46875 -0.9375,0.46875 H 2.15625 V 0 c 0.359375,-0.03125 1.265625,-0.03125 1.6875,-0.03125 0.40625,0 1.328125,0 1.6875,0.03125 V -0.3125 H 5.203125 C 4.25,-0.3125 4.25,-0.4375 4.25,-0.78125 v -0.5625 C 4.96875,-1.4375 5.578125,-1.734375 5.96875,-2.25 6.484375,-2.953125 6.5,-3.75 6.5,-4.1875 c 0,-0.15625 0.015625,-1.046875 0.546875,-1.109375 0.0625,-0.015625 0.125,-0.03125 0.125,-0.109375 0,-0.109375 -0.078125,-0.109375 -0.234375,-0.109375 h -0.375 c -0.390625,0 -0.875,0.0625 -0.890625,1.515625 C 5.65625,-2.90625 5.328125,-1.859375 4.25,-1.59375 Z m 0,0"
               id="id-a42c7ecf-f6ad-446a-bcaa-4487483f6fa6" />
          </g>
        </g>
      </defs>
      <g
         fill="#000000"
         fill-opacity="1"
         id="id-bc2896bd-1186-40a4-9aab-ddf36aa801b7"
         transform="translate(-149.275,-124.801)">
        <g
           transform="translate(148.712,127.182)"
           id="g3016">
          <path
             d="m 2.71875,8.765625 c -0.140625,1.640625 -0.5,2.09375 -1.0625,2.09375 -0.125,0 -0.4375,-0.03125 -0.640625,-0.21875 0.296875,-0.03125 0.375,-0.265625 0.375,-0.40625 0,-0.28125 -0.21875,-0.421875 -0.40625,-0.421875 -0.203125,0 -0.421875,0.140625 -0.421875,0.4375 0,0.46875 0.5,0.828125 1.09375,0.828125 0.953125,0 1.421875,-0.875 1.640625,-1.765625 C 3.421875,8.796875 3.78125,5.890625 3.875,4.78125 L 4.0625,2.296875 C 4.203125,0.46875 4.53125,0.21875 4.984375,0.21875 c 0.09375,0 0.40625,0.015625 0.625,0.203125 C 5.328125,0.46875 5.25,0.703125 5.25,0.84375 5.25,1.125 5.46875,1.25 5.65625,1.25 5.859375,1.25 6.078125,1.125 6.078125,0.828125 6.078125,0.34375 5.578125,0 4.96875,0 c -0.9375,0 -1.328125,0.96875 -1.5,1.71875 -0.125,0.546875 -0.484375,3.359375 -0.5625,4.578125 z m 0,0"
             id="id-1e9c654f-311b-4662-bab6-e9433c4cc893" />
        </g>
      </g>
      <g
         fill="#000000"
         fill-opacity="1"
         id="id-3ec36082-b0b1-4229-bdd9-25b735466963"
         transform="translate(-149.275,-124.801)">
        <g
           transform="translate(153.695,127.182)"
           id="g8881">
          <path
             d="m 2.71875,8.765625 c -0.140625,1.640625 -0.5,2.09375 -1.0625,2.09375 -0.125,0 -0.4375,-0.03125 -0.640625,-0.21875 0.296875,-0.03125 0.375,-0.265625 0.375,-0.40625 0,-0.28125 -0.21875,-0.421875 -0.40625,-0.421875 -0.203125,0 -0.421875,0.140625 -0.421875,0.4375 0,0.46875 0.5,0.828125 1.09375,0.828125 0.953125,0 1.421875,-0.875 1.640625,-1.765625 C 3.421875,8.796875 3.78125,5.890625 3.875,4.78125 L 4.0625,2.296875 C 4.203125,0.46875 4.53125,0.21875 4.984375,0.21875 c 0.09375,0 0.40625,0.015625 0.625,0.203125 C 5.328125,0.46875 5.25,0.703125 5.25,0.84375 5.25,1.125 5.46875,1.25 5.65625,1.25 5.859375,1.25 6.078125,1.125 6.078125,0.828125 6.078125,0.34375 5.578125,0 4.96875,0 c -0.9375,0 -1.328125,0.96875 -1.5,1.71875 -0.125,0.546875 -0.484375,3.359375 -0.5625,4.578125 z m 0,0"
             id="id-c15f8a84-fe10-4527-bb9b-3f5a16e4de7e" />
        </g>
      </g>
      <g
         fill="#000000"
         fill-opacity="1"
         id="id-767ad8d8-2b12-4c63-95bc-aff7f39e4c3b"
         transform="translate(-149.275,-124.801)">
        <g
           transform="translate(160.335,129.645)"
           id="g6472">
          <path
             d="m 1.84375,-4.625 c 0,-0.015625 0.03125,-0.109375 0.03125,-0.109375 0,-0.046875 -0.03125,-0.109375 -0.125,-0.109375 -0.140625,0 -0.71875,0.0625 -0.890625,0.078125 -0.046875,0 -0.15625,0.015625 -0.15625,0.15625 0,0.09375 0.109375,0.09375 0.1875,0.09375 0.328125,0 0.328125,0.0625 0.328125,0.109375 0,0.046875 -0.0625,0.328125 -0.109375,0.484375 l -0.15625,0.640625 c -0.0625,0.25 -0.4375,1.765625 -0.453125,1.859375 -0.046875,0.171875 -0.046875,0.265625 -0.046875,0.34375 0,0.703125 0.453125,1.140625 1.03125,1.140625 0.875,0 1.796875,-0.9375 1.796875,-1.96875 0,-0.8125 -0.5625,-1.171875 -1.046875,-1.171875 -0.359375,0 -0.671875,0.203125 -0.875,0.390625 z m -0.359375,4.5 c -0.328125,0 -0.53125,-0.296875 -0.53125,-0.71875 0,-0.25 0.0625,-0.484375 0.265625,-1.28125 C 1.25,-2.25 1.25,-2.265625 1.390625,-2.421875 1.65625,-2.71875 1.96875,-2.875 2.21875,-2.875 c 0.265625,0 0.5,0.203125 0.5,0.671875 0,0.28125 -0.140625,1 -0.359375,1.40625 C 2.1875,-0.453125 1.84375,-0.125 1.484375,-0.125 Z m 0,0"
             id="id-076961db-d469-4f13-83b6-2ce3088ef679" />
        </g>
      </g>
      <g
         fill="#000000"
         fill-opacity="1"
         id="id-7d89b5ba-03bf-4bb5-bc9d-ee864be87521"
         transform="translate(-149.275,-124.801)">
        <g
           transform="translate(158.398,138.75)"
           id="g3085">
          <path
             d="m 2.9375,-2.65625 c -0.140625,-0.234375 -0.375,-0.421875 -0.71875,-0.421875 -0.890625,0 -1.796875,0.984375 -1.796875,1.984375 0,0.6875 0.453125,1.15625 1.0625,1.15625 0.375,0 0.703125,-0.203125 0.984375,-0.484375 C 2.59375,0 3,0.0625 3.1875,0.0625 c 0.25,0 0.421875,-0.140625 0.546875,-0.359375 0.15625,-0.28125 0.25,-0.671875 0.25,-0.703125 0,-0.09375 -0.09375,-0.09375 -0.109375,-0.09375 -0.109375,0 -0.109375,0.03125 -0.15625,0.21875 C 3.625,-0.53125 3.5,-0.125 3.203125,-0.125 3.03125,-0.125 2.96875,-0.28125 2.96875,-0.46875 c 0,-0.109375 0.0625,-0.375 0.109375,-0.546875 0.046875,-0.1875 0.125,-0.46875 0.15625,-0.625 L 3.375,-2.171875 C 3.421875,-2.359375 3.5,-2.6875 3.5,-2.71875 3.5,-2.875 3.375,-2.9375 3.265625,-2.9375 c -0.125,0 -0.28125,0.078125 -0.328125,0.28125 z M 2.5,-0.875 C 2.453125,-0.671875 2.296875,-0.53125 2.140625,-0.40625 2.078125,-0.34375 1.796875,-0.125 1.5,-0.125 c -0.265625,0 -0.515625,-0.1875 -0.515625,-0.671875 0,-0.375 0.203125,-1.140625 0.375,-1.421875 0.3125,-0.5625 0.671875,-0.65625 0.859375,-0.65625 0.484375,0 0.625,0.53125 0.625,0.609375 0,0.015625 -0.015625,0.078125 -0.015625,0.09375 z m 0,0"
             id="id-d71d895c-1af8-45af-b167-eafb3c5b5e1b" />
        </g>
      </g>
      <g
         fill="#000000"
         fill-opacity="1"
         id="id-7b4aaf4a-1889-423d-8b0f-3cee70b73638"
         transform="translate(-149.275,-124.801)">
        <g
           transform="translate(165.997,135.208)"
           id="g6651">
          <path
             d="M 4.25,-6.015625 C 4.25,-6.359375 4.25,-6.5 5.203125,-6.5 H 5.53125 v -0.3125 c -0.359375,0.03125 -1.28125,0.03125 -1.6875,0.03125 -0.40625,0 -1.328125,0 -1.6875,-0.03125 V -6.5 h 0.328125 c 0.9375,0 0.9375,0.125 0.9375,0.484375 V -1.59375 C 2.125,-1.9375 2.078125,-3.484375 2.078125,-4.125 2.0625,-5.328125 1.625,-5.515625 1.1875,-5.515625 h -0.375 c -0.140625,0 -0.25,0 -0.25,0.109375 0,0.046875 0.03125,0.09375 0.09375,0.109375 0.328125,0.03125 0.578125,0.171875 0.59375,1.34375 0,0.234375 0.03125,1.015625 0.5,1.6875 0.390625,0.546875 1,0.828125 1.671875,0.921875 v 0.5625 c 0,0.328125 0,0.46875 -0.9375,0.46875 H 2.15625 V 0 c 0.359375,-0.03125 1.265625,-0.03125 1.6875,-0.03125 0.40625,0 1.328125,0 1.6875,0.03125 V -0.3125 H 5.203125 C 4.25,-0.3125 4.25,-0.4375 4.25,-0.78125 v -0.5625 C 4.96875,-1.4375 5.578125,-1.734375 5.96875,-2.25 6.484375,-2.953125 6.5,-3.75 6.5,-4.1875 c 0,-0.15625 0.015625,-1.046875 0.546875,-1.109375 0.0625,-0.015625 0.125,-0.03125 0.125,-0.109375 0,-0.109375 -0.078125,-0.109375 -0.234375,-0.109375 h -0.375 c -0.390625,0 -0.875,0.0625 -0.890625,1.515625 C 5.65625,-2.90625 5.328125,-1.859375 4.25,-1.59375 Z m 0,0"
             id="id-c1a204b5-16ff-44f2-934b-622dae8296e9" />
        </g>
      </g>
    </g>
  </g>
</svg>
