<?xml version="1.0" encoding="UTF-8" standalone="no"?>
<!-- Created with Inkscape (http://www.inkscape.org/) -->

<svg
   width="210mm"
   height="297mm"
   viewBox="0 0 210 297"
   version="1.1"
   id="svg1"
   inkscape:version="1.3.2 (091e20e, 2023-11-25)"
   sodipodi:docname="drawing.svg"
   xmlns:inkscape="http://www.inkscape.org/namespaces/inkscape"
   xmlns:sodipodi="http://sodipodi.sourceforge.net/DTD/sodipodi-0.dtd"
   xmlns="http://www.w3.org/2000/svg"
   xmlns:svg="http://www.w3.org/2000/svg">
  <sodipodi:namedview
     id="namedview1"
     pagecolor="#ffffff"
     bordercolor="#000000"
     borderopacity="0.25"
     inkscape:showpageshadow="2"
     inkscape:pageopacity="0.0"
     inkscape:pagecheckerboard="0"
     inkscape:deskcolor="#d1d1d1"
     inkscape:document-units="mm"
     inkscape:zoom="0.56066468"
     inkscape:cx="396.85039"
     inkscape:cy="560.94134"
     inkscape:window-width="1392"
     inkscape:window-height="1212"
     inkscape:window-x="1271"
     inkscape:window-y="107"
     inkscape:window-maximized="0"
     inkscape:current-layer="layer1" />
  <defs
     id="defs1">
    <inkscape:path-effect
       effect="spiro"
       id="path-effect7"
       is_visible="true"
       lpeversion="1" />
  </defs>
  <g
     inkscape:label="Layer 1"
     inkscape:groupmode="layer"
     id="layer1">
    <ellipse
       style="fill:none;stroke:#000000;stroke-width:0.3;stroke-linejoin:round"
       id="path1"
       cx="24.77528"
       cy="29.730337"
       rx="7.3146067"
       ry="7.0786519" />
    <ellipse
       style="fill:none;stroke:#000000;stroke-width:0.3;stroke-linejoin:round"
       id="path2"
       cx="53.089886"
       cy="26.426966"
       rx="9.6741571"
       ry="12.741573" />
    <path
       style="fill:none;stroke:#000000;stroke-width:0.3;stroke-linejoin:round"
       d="M 76.449438,25.011236 116.08989,14.629213"
       id="path3" />
    <circle
       id="path4"
       style="fill:#000000;stroke:#000000;stroke-width:0.264583"
       cx="99.573029"
       cy="39.64045"
       r="0.07127203" />
    <circle
       id="path5"
       style="fill:#000000;stroke:#000000;stroke-width:0.264583"
       cx="121.28089"
       cy="53.325844"
       r="0.07127203" />
    <path
       style="fill:none;stroke:#000000;stroke-width:0.3;stroke-linejoin:round"
       d="m 104.29213,27.370786 7.55056,23.123596"
       id="path6" />
    <path
       style="fill:none;stroke:#000000;stroke-width:0.3;stroke-linejoin:round"
       d="m 135.4382,17.932584 c -2.02002,0.888914 -3.78266,2.353983 -5.02592,4.177426 -1.24325,1.823444 -1.96317,3.999464 -2.05273,6.204597 -0.084,2.067548 0.39069,4.168947 1.44467,5.949658 1.05398,1.780711 2.69671,3.224891 4.63525,3.948667 1.93855,0.723776 4.16381,0.700687 6.04838,-0.153837 1.88457,-0.854524 3.38858,-2.552738 3.91664,-4.553477 0.28951,-1.096901 0.29204,-2.251363 0.1807,-3.380351 -0.11133,-1.128987 -0.33397,-2.243789 -0.48966,-3.367519 -0.15568,-1.123731 -0.24409,-2.267776 -0.0859,-3.391151 0.15824,-1.123374 0.5783,-2.23251 1.33864,-3.074462 0.80992,-0.896853 1.97897,-1.443642 3.18206,-1.557164 1.20309,-0.113523 2.43172,0.194175 3.47546,0.80321 1.04374,0.609034 1.90482,1.510434 2.52635,2.546784 0.62153,1.03635 1.00828,2.204752 1.19815,3.398181 0.27768,1.745421 0.14056,3.52645 0.18249,5.293324 0.0419,1.766873 0.28711,3.595898 1.23324,5.088697 0.63515,1.002138 1.57023,1.808085 2.64653,2.307365 1.0763,0.49928 2.28952,0.692745 3.47001,0.57376 1.18048,-0.118984 2.32581,-0.54791 3.30605,-1.216356 0.98024,-0.668446 1.79489,-1.573709 2.37517,-2.608588 1.14107,-2.03501 1.34235,-4.450387 1.43166,-6.781765 0.0893,-2.331379 0.10189,-4.72165 0.92789,-6.903628 0.70828,-1.871023 2.01722,-3.516396 3.70489,-4.590728 1.68766,-1.074332 3.74768,-1.564367 5.73356,-1.32209 1.98587,0.242277 3.88026,1.223632 5.19167,2.734454 1.31142,1.510822 2.01853,3.541662 1.88673,5.537914 -0.1456,2.205183 -1.25004,4.21719 -2.33602,6.141943 -1.08598,1.924754 -2.20453,3.924959 -2.38308,6.127719 -0.14479,1.786267 0.36461,3.611001 1.37568,5.09068 1.01107,1.47968 2.5114,2.610398 4.19703,3.218969 1.68563,0.608571 3.54762,0.698989 5.29537,0.302641 1.74775,-0.396348 3.37798,-1.272941 4.70495,-2.477457 2.49553,-2.265236 3.86083,-5.719406 3.58846,-9.078688 -0.27238,-3.359281 -2.17632,-6.548378 -5.00419,-8.381987"
       id="path7"
       inkscape:path-effect="#path-effect7"
       inkscape:original-d="m 135.4382,17.932584 c -2.67416,2.831461 -4.40449,6.606741 -7.07865,10.382023 -2.67416,3.775279 10.53932,3.303371 16.04494,5.191011 5.50562,1.887641 0.62922,-8.651686 0.94382,-13.213483 0.31461,-4.561798 6.92135,3.617977 10.38202,5.191011 3.46068,1.573034 0.78652,6.764045 1.41573,10.382021 0.62922,3.617979 8.02248,-0.786516 11.79776,-0.943819 3.77528,-0.157302 1.73033,-8.808989 2.35955,-13.685393 0.62921,-4.876405 10.53932,1.730337 16.51685,2.35955 5.97753,0.629214 -2.67416,7.86517 -4.7191,12.269662 -2.04494,4.404495 10.22472,3.775282 15.57303,6.134833 5.34832,2.359549 -1.10112,-11.325844 -1.41573,-17.460675" />
  </g>
</svg>
